<svg xmlns="http://www.w3.org/2000/svg" viewBox="0 0 303.2 324.8">
  <polygon points="218.00,26.80 266.00,26.80 293.20,10.00 245.20,10.00" fill="#F6C63C"/>
  <polygon points="202.00,42.80 218.00,42.80 245.20,26.00 229.20,26.00" fill="#F6C63C"/>
  <polygon points="138.00,58.80 202.00,58.80 229.20,42.00 165.20,42.00" fill="#F6C63C"/>
  <polygon points="106.00,106.80 138.00,106.80 165.20,90.00 133.20,90.00" fill="#F6C63C"/>
  <polygon points="74.00,154.80 106.00,154.80 133.20,138.00 101.20,138.00" fill="#F6C63C"/>
  <polygon points="138.00,186.80 218.00,186.80 245.20,170.00 165.20,170.00" fill="#F6C63C"/>
  <polygon points="42.00,202.80 74.00,202.80 101.20,186.00 69.20,186.00" fill="#F6C63C"/>
  <polygon points="10.00,250.80 42.00,250.80 69.20,234.00 37.20,234.00" fill="#F6C63C"/>
  <polygon points="74.00,266.80 74.00,314.80 101.20,298.00 101.20,250.00" fill="#4A2F7A"/>
  <polygon points="106.00,218.80 106.00,266.80 133.20,250.00 133.20,202.00" fill="#4A2F7A"/>
  <polygon points="138.00,170.80 138.00,186.80 165.20,170.00 165.20,154.00" fill="#4A2F7A"/>
  <polygon points="170.00,122.80 170.00,170.80 197.20,154.00 197.20,106.00" fill="#4A2F7A"/>
  <polygon points="202.00,106.80 202.00,122.80 229.20,106.00 229.20,90.00" fill="#4A2F7A"/>
  <polygon points="266.00,26.80 266.00,314.80 293.20,298.00 293.20,10.00" fill="#331F57"/>
  <polygon points="138.00,58.80 202.00,58.80 202.00,122.80 138.00,122.80" fill="#6B4CA6"/>
  <polygon points="106.00,106.80 170.00,106.80 170.00,170.80 106.00,170.80" fill="#6B4CA6"/>
  <polygon points="74.00,154.80 138.00,154.80 138.00,218.80 74.00,218.80" fill="#6B4CA6"/>
  <polygon points="42.00,202.80 106.00,202.80 106.00,266.80 42.00,266.80" fill="#6B4CA6"/>
  <polygon points="10.00,250.80 74.00,250.80 74.00,314.80 10.00,314.80" fill="#6B4CA6"/>
  <polygon points="170.00,58.80 218.00,58.80 218.00,106.80 170.00,106.80" fill="#6B4CA6"/>
  <polygon points="218.00,58.80 266.00,58.80 266.00,314.80 218.00,314.80" fill="#6B4CA6"/>
  <polygon points="202.00,42.80 266.00,42.80 266.00,58.80 202.00,58.80" fill="#6B4CA6"/>
  <polygon points="218.00,26.80 266.00,26.80 266.00,42.80 218.00,42.80" fill="#6B4CA6"/>
  <polygon points="130.00,186.80 222.00,186.80 222.00,218.80 130.00,218.80" fill="#6B4CA6"/>
</svg>