<svg xmlns="http://www.w3.org/2000/svg" viewBox="-135 -142 270 272"><polygon points="0.00,-112.00 96.99,56.00 69.95,40.39 0.00,-80.78" fill="#7E5CC4"/><polygon points="0.00,-80.78 69.95,40.39 44.99,25.98 0.00,-51.96" fill="#4A2F7A"/><polygon points="96.99,56.00 -96.99,56.00 -69.95,40.39 69.95,40.39" fill="#F6C63C"/><polygon points="69.95,40.39 -69.95,40.39 -44.99,25.98 44.99,25.98" fill="#B27E10"/><polygon points="-96.99,56.00 0.00,-112.00 0.00,-80.78 -69.95,40.39" fill="#4E3382"/><polygon points="-69.95,40.39 0.00,-80.78 0.00,-51.96 -44.99,25.98" fill="#2C1C50"/><polygon points="0.00,-112.00 9.01,-96.39 -8.32,-66.37 -17.33,-81.98" fill="#4E3382"/><polygon points="9.01,-96.39 17.33,-81.98 0.00,-51.96 -8.32,-66.37" fill="#2C1C50"/><polygon points="96.99,56.00 78.97,56.00 61.63,25.98 79.66,25.98" fill="#7E5CC4"/><polygon points="78.97,56.00 62.33,56.00 44.99,25.98 61.63,25.98" fill="#4A2F7A"/><polygon points="-96.99,56.00 -87.98,40.39 -53.31,40.39 -62.33,56.00" fill="#F6C63C"/><polygon points="-87.98,40.39 -79.66,25.98 -44.99,25.98 -53.31,40.39" fill="#B27E10"/></svg>