<svg xmlns="http://www.w3.org/2000/svg" viewBox="6 24 272 260"><polygon points="130,44 232,252 256.25,266 154.25,58" fill="#331F57"/><polygon points="130,137.8 74,252 98.25,266 154.25,151.8" fill="#331F57"/><polygon points="232,252 186,252 210.25,266 256.25,266" fill="#4A2F7A"/><polygon points="74,252 28,252 52.25,266 98.25,266" fill="#4A2F7A"/><polygon points="101,188 159,188 183.25,202 125.25,202" fill="#D69E1C"/><polygon points="150,170 159,188 183.25,202 174.25,184" fill="#B27E10"/><polygon points="110,170 150,170 159,188 101,188" fill="#F6C63C"/><polygon points="130,44 232,252 186,252 130,137.8 74,252 28,252" fill="#6B4CA6"/></svg>